<svg xmlns="http://www.w3.org/2000/svg" xmlns:xlink="http://www.w3.org/1999/xlink" viewBox="0 0 25 25" fill="#4E4E4E">
    <g clip-path="url(#clip-Action_Delete)">
        <g data-name="Group 4194" transform="translate(-42)">
            <path id="BIN_1_" d="M0,3.879A1.27,1.27,0,0,1,1.293,2.586H7.759V1.293A1.27,1.27,0,0,1,9.052,0h2.586a1.27,1.27,0,0,1,1.293,1.293V2.586H19.4A1.27,1.27,0,0,1,20.69,3.879V5.172H0ZM19.4,7.759V23.707A1.27,1.27,0,0,1,18.1,25H2.586a1.27,1.27,0,0,1-1.293-1.293V6.466H19.4ZM6.466,10.345a1.293,1.293,0,0,0-2.586,0V21.121a1.293,1.293,0,1,0,2.586,0Zm5.172,0a1.293,1.293,0,0,0-2.586,0V21.121a1.293,1.293,0,1,0,2.586,0Zm5.172,0a1.293,1.293,0,1,0-2.586,0V21.121a1.293,1.293,0,1,0,2.586,0Z" transform="translate(45)" fill-rule="evenodd" />
        </g>
    </g>
</svg>